<svg width="144" height="57" viewBox="0 0 144 57" fill="none" xmlns="http://www.w3.org/2000/svg">
<g clip-path="url(#clip0_1_157)">
<path d="M61.037 45.1476C76.0404 45.1476 88.2031 35.041 88.2031 22.5738C88.2031 10.1066 76.0404 0 61.037 0C46.0336 0 33.871 10.1066 33.871 22.5738C33.871 35.041 46.0336 45.1476 61.037 45.1476Z" fill="#c5c5c5"/>
<path d="M110.061 5.25412C96.8955 3.77535 81.8645 9.68863 78.4522 20.358C77.5922 18.461 76.0287 16.8403 73.9877 15.7299C71.9466 14.6196 69.5336 14.0772 67.0973 14.1811C64.661 14.285 62.3275 15.0298 60.4339 16.3079C58.5403 17.586 57.1847 19.3312 56.563 21.2914L58.0703 22.1884C86.2843 27.2583 115.49 27.1486 143.648 21.8669C134.49 13.8692 123.227 6.73288 110.061 5.25412Z" fill="#F0F0F0"/>
<path d="M53.5986 35.3525C40.4327 33.8737 25.4017 39.787 21.9893 50.4564C21.1294 48.5594 19.5659 46.9386 17.5249 45.8283C15.4838 44.718 13.0708 44.1756 10.6345 44.2795C8.19814 44.3834 5.86463 45.1282 3.97106 46.4063C2.07749 47.6844 0.721891 49.4296 0.100128 51.3898L1.60743 52.2868C29.8215 57.3567 59.0275 57.247 87.1853 51.9653C78.0271 43.9676 66.7644 36.8313 53.5986 35.3525Z" fill="#F0F0F0"/>
</g>
<defs>
<clipPath id="clip0_1_157">
<rect width="144" height="80" fill="white"/>
</clipPath>
</defs>
</svg>
