<svg width="551" height="351" viewBox="0 0 551 351" fill="none" xmlns="http://www.w3.org/2000/svg">
<g clip-path="url(#clip0_0_1)">
<path d="M262.241 342.256C334.404 342.256 392.904 340.607 392.904 338.573C392.904 336.54 334.404 334.891 262.241 334.891C190.078 334.891 131.579 336.54 131.579 338.573C131.579 340.607 190.078 342.256 262.241 342.256Z" fill="#3F3D56"/>
<path d="M146.247 328.913C168.01 328.913 185.652 327.63 185.652 326.047C185.652 324.464 168.01 323.18 146.247 323.18C124.485 323.18 106.842 324.464 106.842 326.047C106.842 327.63 124.485 328.913 146.247 328.913Z" fill="#3F3D56"/>
<path d="M218.034 338.825C218.034 338.825 250.739 270.001 232.709 227.648C214.679 185.295 200.423 186.949 200.423 186.949C200.423 186.949 176.104 181.986 145.915 196.545C115.726 211.104 107.759 215.406 90.5678 209.45C73.3767 203.494 70.0223 194.229 28.0928 195.222C28.0928 195.222 50.3155 185.626 72.1188 194.229C93.9222 202.832 108.598 207.464 130.82 194.229C153.043 180.994 183.651 163.788 213.421 174.045C213.421 174.045 191.618 157.17 184.49 157.17C177.362 157.17 143.818 154.523 132.917 145.589C132.917 145.589 117.403 136.986 89.7293 158.163C62.0558 179.339 68.7645 179.339 44.026 177.685C19.2876 176.03 0 166.435 0 166.435C0 166.435 28.9314 175.699 46.5418 171.067C64.1522 166.435 79.2469 148.898 94.7608 142.942C110.275 136.986 119.499 129.045 140.464 137.648C140.464 137.648 131.659 109.192 114.887 111.508C98.1151 113.824 122.854 104.89 122.854 104.89C122.854 104.89 118.241 56.5812 109.436 53.2724C100.631 49.9635 106.082 41.3606 89.7292 39.7061C89.7292 39.7061 109.855 37.7208 113.629 48.64C117.403 59.5591 143.399 118.457 143.399 118.457C143.399 118.457 159.332 143.604 176.943 137.648C194.553 131.692 170.234 98.2726 170.234 98.2726L140.045 87.3534C140.045 87.3534 162.687 86.6917 176.523 96.9491C190.36 107.206 191.199 140.295 191.199 140.295C191.199 140.295 226 144.265 234.386 159.155C234.386 159.155 239.837 145.92 229.355 137.979C226.734 135.993 223.982 132.54 221.329 128.476C211.182 112.936 207.74 95.2213 210.932 77.9217C212.494 69.4561 213.455 61.1787 211.744 59.2283C207.971 54.9268 192.037 28.4561 190.779 21.5075C189.522 14.559 192.037 6.10352e-05 192.037 6.10352e-05C192.037 6.10352e-05 192.457 17.8678 197.488 23.4928C202.52 29.1178 216.776 56.9121 216.776 56.9121C216.776 56.9121 216.776 91.9858 228.516 109.192C240.256 126.398 262.898 145.589 261.64 158.163V165.442C261.64 165.442 286.798 146.582 285.121 140.295C283.444 134.008 281.347 119.118 265.414 110.184C249.481 101.251 238.998 87.0225 250.319 66.5077C261.64 45.9929 261.64 42.3532 261.64 42.3532L254.093 67.8313C254.093 67.8313 249.9 90.6623 261.64 98.6035C273.381 106.545 288.895 121.104 288.895 121.104L285.54 73.4563L296.442 92.3167C296.442 92.3167 319.922 68.493 347.596 60.5518C375.269 52.6106 392.461 24.8163 392.461 24.8163L415.941 10.2574L396.654 28.4561C396.654 28.4561 390.783 49.9635 357.659 65.1842C324.535 80.4049 303.151 102.905 301.893 116.802C300.635 130.699 299.377 142.942 299.377 142.942C299.377 142.942 361.433 141.288 375.269 119.78C389.106 98.2726 390.364 55.5886 403.782 48.64C417.199 41.6914 442.357 33.0885 442.357 33.0885L414.264 51.2871C414.264 51.2871 408.394 66.1769 409.652 76.7651C410.91 87.3534 400.427 97.2799 400.427 97.2799L392.461 115.809L383.655 131.692C383.655 131.692 419.715 132.354 438.583 149.229C457.451 166.104 504.413 171.067 504.413 171.067L477.997 176.692C477.997 176.692 452.839 170.074 428.939 157.832C405.039 145.589 407.555 134.67 377.785 146.913C348.015 159.155 307.344 169.413 307.344 169.413C307.344 169.413 330.824 160.81 373.173 181.655C415.522 202.501 352.208 178.016 333.34 185.957C314.472 193.898 305.666 183.972 298.119 203.825C290.572 223.678 276.735 277.943 292.668 308.384L308.602 338.825H218.034Z" fill="#3F3D56"/>
<path opacity="0.1" d="M375.906 119.78C364.664 137.253 321.596 141.623 305.835 142.647C305.393 147.133 305.102 149.969 305.102 149.969C305.102 149.969 367.157 148.315 380.994 126.807C394.831 105.3 396.089 62.6159 409.506 55.6674C410.929 54.9305 412.485 54.1749 414.128 53.4129C414.589 52.0775 414.9 51.287 414.9 51.287L442.993 33.0884C442.993 33.0884 417.835 41.6914 404.418 48.6399C391 55.5885 389.742 98.2726 375.906 119.78Z" fill="black"/>
<path opacity="0.1" d="M303.598 86.3521C303.507 94.4987 302.167 99.344 302.167 99.344C302.167 99.344 325.637 75.5306 353.303 67.5843C354.938 66.768 356.597 65.9643 358.295 65.1841C391.419 49.9635 397.29 28.456 397.29 28.456L416.577 10.2574L393.097 24.8163C393.097 24.8163 375.906 52.6105 348.232 60.5518C329.369 65.9648 312.456 78.7555 303.598 86.3521Z" fill="black"/>
<path opacity="0.1" d="M267.365 165.19V172.469C267.365 172.469 292.523 153.609 290.846 147.322C289.563 142.514 288.027 132.677 280.253 124.318C283.757 130.635 284.824 136.797 285.757 140.295C286.96 144.803 274.364 155.776 267.14 161.625C267.394 162.802 267.469 163.999 267.365 165.19Z" fill="black"/>
<path opacity="0.1" d="M233.618 115.235C233.818 115.57 234.023 115.9 234.241 116.219C240.671 125.642 250.364 135.659 257.617 144.86C251.755 135.748 241.554 125.329 233.618 115.235Z" fill="black"/>
<path opacity="0.1" d="M254.06 101.148C250.679 94.61 250.122 86.8306 254.006 77.7146C253.958 74.4109 254.199 71.1086 254.729 67.8312L261.331 45.5436C260.114 48.7577 257.329 54.9582 250.955 66.5077C242.887 81.1289 245.898 92.5541 254.06 101.148Z" fill="black"/>
<path opacity="0.1" d="M439.219 149.229C426.134 137.526 404.784 133.621 392.924 132.327L389.38 138.719C389.38 138.719 425.44 139.381 444.308 156.256C454.771 165.614 473.871 171.307 488.813 174.524L505.049 171.067C505.049 171.067 458.088 166.104 439.219 149.229Z" fill="black"/>
<path opacity="0.1" d="M182.667 144.675C200.278 138.719 175.959 105.3 175.959 105.3L175.293 105.059C181.356 115.154 190.149 133.396 177.579 137.648C165.816 141.626 154.803 131.729 148.785 124.716C149.004 125.212 149.124 125.484 149.124 125.484C149.124 125.484 165.057 150.631 182.667 144.675Z" fill="black"/>
<path opacity="0.1" d="M240.111 166.183C240.111 166.183 245.417 153.275 235.449 145.305C237.893 152.171 235.022 159.155 235.022 159.155C228.535 147.637 206.244 142.654 196.481 140.987C196.859 144.822 196.923 147.322 196.923 147.322C196.923 147.322 231.725 151.293 240.111 166.183Z" fill="black"/>
<path opacity="0.1" d="M261.331 45.5436C262.276 43.0487 262.276 42.3531 262.276 42.3531L261.331 45.5436Z" fill="black"/>
<path opacity="0.1" d="M52.0121 178.158C52.0966 178.136 52.1825 178.117 52.2665 178.094C69.8769 173.462 84.9716 155.925 100.486 149.969C116 144.013 125.224 136.072 146.189 144.675C146.189 144.675 142.521 132.828 135.414 125.044C137.768 129.108 139.67 133.325 141.1 137.648C120.135 129.045 110.911 136.986 95.3969 142.942C79.8829 148.898 64.7883 166.435 47.1779 171.067C29.5675 175.699 0.636078 166.435 0.636078 166.435C0.636078 166.435 19.9237 176.03 44.6621 177.685C47.492 177.874 49.9067 178.041 52.0121 178.158Z" fill="black"/>
<path opacity="0.1" d="M226.821 338.825C234.504 320.24 252.98 268.847 238.434 234.676C232.152 219.919 226.329 210.509 221.407 204.505C225.088 210.188 229.112 217.705 233.345 227.648C251.375 270.001 218.67 338.825 218.67 338.825H226.821Z" fill="black"/>
<path opacity="0.1" d="M63.0748 197.883C68.2154 198.295 73.219 199.438 77.8436 201.256C95.0632 208.051 107.839 212.36 123.396 207.355C126.94 205.878 130.904 204.05 135.475 201.873C135.832 201.668 136.185 201.471 136.545 201.256C158.768 188.021 189.376 170.815 219.146 181.072C219.146 181.072 213.13 176.417 206.385 171.997C179.099 166.714 151.773 182.129 131.456 194.229C109.234 207.464 94.5583 202.832 72.7549 194.229C50.9515 185.626 28.7289 195.222 28.7289 195.222C44.9294 194.838 55.3685 195.986 63.0748 197.883Z" fill="black"/>
<path opacity="0.1" d="M105.635 50.0602C106.113 50.6957 106.692 51.2804 107.359 51.7997C106.869 51.1703 106.291 50.5867 105.635 50.0602Z" fill="black"/>
<path opacity="0.1" d="M182.248 103.976C182.896 104.46 183.503 104.977 184.066 105.523C182.229 102.039 179.961 99.0258 177.159 96.949C163.323 86.6916 140.681 87.3534 140.681 87.3534L169.076 97.6237C173.942 99.0562 178.413 101.213 182.248 103.976Z" fill="black"/>
<path opacity="0.1" d="M212.38 59.2282C214.091 61.1787 213.13 69.4561 211.568 77.9217C208.376 95.2212 211.818 112.936 221.965 128.476C223.301 130.562 224.793 132.583 226.433 134.528C216.771 119.224 213.531 101.888 216.657 84.9491C218.219 76.4835 219.18 68.2061 217.469 66.2557C213.695 61.9542 197.762 35.4834 196.504 28.5349C196.127 25.8392 196.039 23.1231 196.241 20.4157C192.984 13.123 192.673 0 192.673 0C192.673 0 190.158 14.5589 191.416 21.5075C192.673 28.456 208.607 54.9267 212.38 59.2282Z" fill="black"/>
<path opacity="0.1" d="M251.717 13.4848C251.549 12.8308 251.294 12.1926 250.955 11.581C250.955 11.581 251.278 12.2951 251.717 13.4848Z" fill="black"/>
<path opacity="0.1" d="M103.62 46.8091C107.315 47.1661 111.566 48.0608 114.808 50.1358C114.597 49.5713 114.412 49.0652 114.265 48.64C110.492 37.7208 90.3654 39.7061 90.3654 39.7061C99.4606 40.6263 101.81 43.6962 103.62 46.8091Z" fill="black"/>
<path d="M207.834 324.687C210.824 333.408 221.064 338.81 221.064 338.81C221.064 338.81 226.456 330.071 223.467 321.35C220.477 312.629 210.237 307.228 210.237 307.228C210.237 307.228 204.845 315.966 207.834 324.687Z" fill="#3F3D56"/>
<path d="M212.227 322.813C220.43 329.115 221.432 338.802 221.432 338.802C221.432 338.802 209.134 338.273 200.931 331.971C192.727 325.669 191.725 315.981 191.725 315.981C191.725 315.981 204.024 316.511 212.227 322.813Z" fill="black"/>
<path d="M185.037 86.3603C184.324 95.3772 175.664 102.289 175.664 102.289C175.664 102.289 168.161 94.5811 168.874 85.5642C169.587 76.5473 178.247 69.6357 178.247 69.6357C178.247 69.6357 185.751 77.3434 185.037 86.3603Z" fill="black"/>
<path d="M94.7672 29.3571C104.452 34.1753 107.984 43.4866 107.984 43.4866C107.984 43.4866 95.8146 44.9861 86.1302 40.1678C76.4459 35.3496 72.9135 26.0383 72.9135 26.0383C72.9135 26.0383 85.0828 24.5389 94.7672 29.3571Z" fill="black"/>
<path d="M73.1404 139.286C82.8248 144.104 86.3571 153.416 86.3571 153.416C86.3571 153.416 74.1879 154.915 64.5035 150.097C54.8191 145.279 51.2868 135.967 51.2868 135.967C51.2868 135.967 63.456 134.468 73.1404 139.286Z" fill="black"/>
<path d="M124.663 181.451C134.347 186.269 137.88 195.58 137.88 195.58C137.88 195.58 125.71 197.08 116.026 192.261C106.342 187.443 102.809 178.132 102.809 178.132C102.809 178.132 114.979 176.632 124.663 181.451Z" fill="black"/>
<path d="M270.02 45.4278C267.1 54.1633 256.903 59.6148 256.903 59.6148C256.903 59.6148 251.441 50.9031 254.361 42.1676C257.282 33.4321 267.479 27.9807 267.479 27.9807C267.479 27.9807 272.941 36.6923 270.02 45.4278Z" fill="black"/>
<path d="M362.147 52.2391C358.715 60.8579 348.207 65.9289 348.207 65.9289C348.207 65.9289 343.265 57.026 346.698 48.4073C350.13 39.7885 360.638 34.7175 360.638 34.7175C360.638 34.7175 365.58 43.6204 362.147 52.2391Z" fill="black"/>
<path d="M461.722 148.162C455.504 155.748 443.665 158.427 443.665 158.427C443.665 158.427 441.906 148.807 448.124 141.221C454.342 133.635 466.182 130.956 466.182 130.956C466.182 130.956 467.94 140.576 461.722 148.162Z" fill="black"/>
<path d="M485.499 351C521.674 351 551 349.351 551 347.317C551 345.284 521.674 343.635 485.499 343.635C449.324 343.635 419.998 345.284 419.998 347.317C419.998 349.351 449.324 351 485.499 351Z" fill="#3F3D56"/>
</g>
<defs>
<clipPath id="clip0_0_1">
<rect width="551" height="351" fill="white"/>
</clipPath>
</defs>
</svg>
